<?xml version="1.0" encoding="UTF-8" standalone="no"?>
<!-- Created with Inkscape (http://www.inkscape.org/) -->

<svg
   width="210mm"
   height="297mm"
   viewBox="0 0 210 297"
   version="1.1"
   id="svg5"
   inkscape:version="1.2.2 (b0a8486541, 2022-12-01)"
   sodipodi:docname="logo_inkscape.svg"
   inkscape:export-filename="logo_512.png"
   inkscape:export-xdpi="118.78733"
   inkscape:export-ydpi="118.78733"
   xmlns:inkscape="http://www.inkscape.org/namespaces/inkscape"
   xmlns:sodipodi="http://sodipodi.sourceforge.net/DTD/sodipodi-0.dtd"
   xmlns="http://www.w3.org/2000/svg"
   xmlns:svg="http://www.w3.org/2000/svg">
  <sodipodi:namedview
     id="namedview7"
     pagecolor="#ffffff"
     bordercolor="#000000"
     borderopacity="0.25"
     inkscape:showpageshadow="2"
     inkscape:pageopacity="0.0"
     inkscape:pagecheckerboard="0"
     inkscape:deskcolor="#d1d1d1"
     inkscape:document-units="mm"
     showgrid="false"
     inkscape:zoom="1.4837386"
     inkscape:cx="423.25515"
     inkscape:cy="560.40869"
     inkscape:window-width="1854"
     inkscape:window-height="1011"
     inkscape:window-x="1200"
     inkscape:window-y="32"
     inkscape:window-maximized="1"
     inkscape:current-layer="layer1" />
  <defs
     id="defs2">
    <marker
       markerWidth="0.52499998"
       markerHeight="0.99999994"
       refX="0"
       refY="0"
       orient="auto-start-reverse"
       id="marker1956"
       viewBox="0 0 0.525 1"
       inkscape:stockid="pin"
       style="overflow:visible"
       preserveAspectRatio="xMidYMid"
       inkscape:isstock="true"
       inkscape:collect="always">
      <path
         id="path1954"
         style="fill:context-stroke;stroke-linecap:butt"
         d="M 0,-1 1,0 0,1 -0.05,0 Z"
         sodipodi:nodetypes="sssssscsss"
         transform="scale(0.5)" />
    </marker>
    <marker
       markerWidth="0.52499998"
       markerHeight="0.99999994"
       refX="0"
       refY="0"
       orient="auto-start-reverse"
       id="CapTriangle"
       viewBox="0 0 0.525 1"
       inkscape:stockid="pin"
       style="overflow:visible"
       preserveAspectRatio="xMidYMid"
       inkscape:isstock="true"
       inkscape:collect="always">
      <path
         id="path7813"
         style="fill:context-stroke;stroke-linecap:butt"
         d="M 0,-1 1,0 0,1 -0.05,0 Z"
         sodipodi:nodetypes="sssssscsss"
         transform="scale(0.5)" />
    </marker>
  </defs>
  <g
     inkscape:label="Calque 1"
     inkscape:groupmode="layer"
     id="layer1">
    <rect
       style="fill:#ffffff;fill-opacity:1;stroke:none;stroke-width:0.383463;stroke-linecap:round;stroke-dasharray:none;stroke-opacity:1"
       id="rect3859"
       width="109.47968"
       height="109.47968"
       x="38.581467"
       y="95.735214" />
    <path
       sodipodi:type="spiral"
       style="fill:none;fill-rule:evenodd;stroke:#37abc8;stroke-width:5.965;stroke-dasharray:none;marker-start:url(#marker1956);marker-end:url(#CapTriangle)"
       id="path1585"
       sodipodi:cx="43.3778"
       sodipodi:cy="47.726292"
       sodipodi:expansion="1"
       sodipodi:revolution="5"
       sodipodi:radius="55.54882"
       sodipodi:argument="-30.630527"
       sodipodi:t0="0"
       d="m 43.3778,47.726292 c 1.181629,1.181631 -1.009841,2.175788 -1.963949,1.963945 -2.585573,-0.574079 -3.001218,-3.885877 -1.963942,-5.891844 1.855442,-3.588203 6.673616,-4.008556 9.819738,-1.963938 4.617061,3.000558 5.045752,9.499174 1.963936,13.747633 -4.107577,5.662528 -12.338156,6.095668 -17.675529,1.963932 -6.716538,-5.199369 -7.152165,-15.183536 -1.963928,-21.603423 6.28365,-7.775343 18.03252,-8.212473 25.531318,-1.963925 8.837073,7.363698 9.275172,20.883751 1.963921,29.459212 -8.441128,9.90071 -23.736481,10.339469 -33.387107,1.963919 C 14.736604,55.88497 14.297378,38.811537 23.738343,28.086801 34.32968,16.055267 53.183161,15.615698 64.98124,26.122889 78.079344,37.787864 78.519172,58.422838 66.945148,71.293681 54.207183,85.45888 31.789623,85.898908 17.846462,73.257585 2.6137602,59.447124 2.173575,35.246132 15.882561,20.231004 30.765131,3.9304773 56.750225,3.4901662 72.837037,18.267107 90.205649,34.221477 90.646062,61.991211 74.800931,79.149477 57.77501,97.586388 28.220197,98.026885 9.9906652,81.113368 -9.5147193,63.016103 -9.9552869,31.675846 8.0267781,12.375208 27.195217,-8.1987979 60.321222,-8.6394242 80.692833,10.411324 c 21.642747,20.23947 22.083427,55.151479 1.96388,76.59395"
       transform="translate(47.239764,105.45634)" />
    <g
       id="g3716"
       transform="matrix(1.3720787,0,0,1.3720787,-142.78568,-6.080367)">
      <circle
         style="fill:#ffffff;stroke-width:3.07597;stroke-linecap:round;stroke-dasharray:none"
         id="path2082"
         cx="110.01526"
         cy="174.78851"
         r="27.750837"
         transform="rotate(-23.5)" />
      <path
         d="m 151.5358,102.80885 q -1.18854,1.73825 -1.63513,3.57766 -0.43474,1.80934 0.25804,3.40261 0.48311,1.11111 0.98264,1.91594 0.51137,0.77476 1.00451,1.50759 0.51409,0.72372 1.01362,1.52856 0.52048,0.79572 0.99449,1.88586 0.38285,0.88049 0.44212,1.87676 0.0711,0.96618 -0.16676,1.96701 -0.22602,0.97075 -0.71638,1.90687 -0.4694,0.927 -1.18582,1.68721 2.2605,-0.53419 3.8839,0.50487 1.63526,1.00899 2.64707,3.33601 0.49223,1.13207 0.7648,2.16023 0.29353,1.01904 0.51777,1.99343 0.23611,0.9443 0.4631,1.86764 0.24794,0.91423 0.64903,1.83665 0.37373,0.85953 0.80033,1.49666 0.45668,0.64897 1.1075,1.11382 0.65082,0.46484 1.56779,0.73919 0.94705,0.28618 2.3225,0.41102 l 0.0329,2.25412 q -2.23863,0.12586 -4.0671,0.0484 -1.82846,-0.0774 -3.25678,-0.5532 -1.41922,-0.4548 -2.46564,-1.37083 -1.01634,-0.90418 -1.67265,-2.4136 -0.48313,-1.1111 -0.74019,-2.04629 -0.24521,-0.96527 -0.4722,-1.88861 -0.20602,-0.93245 -0.48132,-1.90957 -0.25433,-0.98623 -0.77391,-2.18119 -0.73836,-1.6981 -1.78203,-2.09184 -1.04367,-0.39374 -2.36441,0.18054 l -0.44026,0.19142 q -0.12583,0.0547 -0.22149,0.12123 -0.10476,0.0456 -0.23333,0.15131 -0.11672,0.0757 -0.41291,0.25432 l -1.11297,-1.58506 q 2.06541,-1.67083 2.64234,-3.26778 0.58878,-1.62704 -0.0948,-3.19935 -0.50135,-1.15303 -1.01273,-1.92779 -0.49039,-0.78388 -0.99538,-1.48663 -0.49314,-0.73283 -1.00451,-1.50759 -0.49951,-0.80484 -1.00998,-1.97883 -0.61075,-1.4046 -0.5014,-2.87303 0.10938,-1.46842 0.76194,-2.94871 0.67355,-1.4894 1.82747,-2.96332 1.14481,-1.49488 2.57491,-2.96425 z"
         style="font-weight:bold;font-size:36.9517px;font-family:'Gentium Basic';-inkscape-font-specification:'Gentium Basic Bold';text-align:center;text-anchor:middle;fill:#00aa44;stroke-width:22.1048;stroke-linecap:round"
         id="path3331" />
      <path
         d="m 194.12829,106.39999 q -2.0654,1.67082 -2.66331,3.2769 -0.57692,1.59695 0.11591,3.19023 0.50136,1.15303 0.99176,1.93691 0.49039,0.78387 0.97442,1.49574 0.50499,0.70275 1.00452,1.50759 0.51136,0.77476 1.02183,1.94875 0.61985,1.42557 0.50139,2.87303 -0.10939,1.46842 -0.7829,2.95782 -0.6526,1.48029 -1.7974,2.97517 -1.12384,1.48576 -2.55394,2.95514 l -1.57053,-1.26148 q 1.18854,-1.73825 1.61417,-3.56855 0.43473,-1.80933 -0.25804,-3.40261 -0.474,-1.09014 -0.98538,-1.86489 -0.49951,-0.80484 -1.01362,-1.52856 -0.50224,-0.75379 -0.99266,-1.53766 -0.49952,-0.80484 -0.98264,-1.91594 -0.38286,-0.8805 -0.45398,-1.84668 -0.0501,-0.9753 0.17589,-1.94606 0.21689,-0.99171 0.70726,-1.92783 0.49036,-0.93611 1.20678,-1.69632 -2.29057,0.52234 -3.90486,-0.49576 -1.61428,-1.0181 -2.63523,-3.36609 -0.49223,-1.13206 -0.78575,-2.15111 -0.29353,-1.01905 -0.52963,-1.96335 -0.21514,-0.95342 -0.46308,-1.867646 -0.22699,-0.92334 -0.62807,-1.845764 -0.38285,-0.880495 -0.83041,-1.508505 -0.43572,-0.658088 -1.07742,-1.101971 -0.65082,-0.464848 -1.58877,-0.730066 -0.92609,-0.295302 -2.28056,-0.429262 l -0.0329,-2.254125 q 2.22952,-0.146808 4.04613,-0.0393 1.82847,0.07743 3.24768,0.532227 1.4192,0.454806 2.44466,1.37995 1.03732,0.895059 1.69363,2.404481 0.48313,1.111103 0.72834,2.07637 0.25706,0.935192 0.4722,1.888609 0.22699,0.923342 0.50227,1.900462 0.27531,0.97711 0.78578,2.15111 0.73835,1.6981 1.78202,2.09184 1.04366,0.39374 2.36442,-0.18054 l 0.41929,-0.18231 q 0.14674,-0.0638 0.25156,-0.10938 0.0957,-0.0665 0.21238,-0.14219 0.13764,-0.0848 0.42474,-0.2844 z"
         style="font-weight:bold;font-size:36.9517px;font-family:'Gentium Basic';-inkscape-font-specification:'Gentium Basic Bold';text-align:center;text-anchor:middle;fill:#00aa44;stroke-width:22.1048;stroke-linecap:round"
         id="path3335" />
      <text
         xml:space="preserve"
         style="font-weight:bold;font-size:27.0479px;font-family:'Gentium Basic';-inkscape-font-specification:'Gentium Basic Bold';text-align:center;text-anchor:middle;fill:#003380;stroke-width:2.52256;stroke-linecap:round;stroke-dasharray:none"
         x="109.47945"
         y="172.81628"
         id="text3063"
         transform="rotate(-23.5)"><tspan
           sodipodi:role="line"
           style="fill:#003380;stroke-width:2.52257"
           x="109.47945"
           y="172.81628"
           id="tspan3065">α</tspan></text>
      <text
         xml:space="preserve"
         style="font-weight:bold;font-size:27.0479px;font-family:'Gentium Basic';-inkscape-font-specification:'Gentium Basic Bold';text-align:center;text-anchor:middle;fill:#003380;stroke-width:2.52256;stroke-linecap:round;stroke-dasharray:none"
         x="110.12182"
         y="190.32655"
         id="text3071"
         transform="rotate(-23.5)"><tspan
           sodipodi:role="line"
           id="tspan3069"
           style="fill:#003380;stroke-width:2.52257"
           x="110.12182"
           y="190.32655">ω</tspan></text>
      <path
         d="m 161.51424,99.44561 -6.76018,-15.547358 0.37915,-0.96255 c 0.15799,-0.01886 0.36399,-0.04196 0.61799,-0.06929 0.24611,-0.0073 0.50224,-0.0106 0.7684,-0.01005 0.26615,6.04e-4 0.52229,-0.0027 0.7684,-0.01006 0.25218,0.0067 0.46334,0.01458 0.63349,0.02369 l 6.60489,15.190236 z"
         style="font-weight:bold;font-size:36.9517px;font-family:'Gentium Basic';-inkscape-font-specification:'Gentium Basic Bold';text-align:center;text-anchor:middle;fill:#003380;fill-opacity:1;stroke-width:22.1048;stroke-linecap:round"
         id="path3333-7-5"
         sodipodi:nodetypes="ccccscccc" />
      <path
         d="m 176.73508,134.45111 6.76017,15.54736 0.96255,0.37915 c 0.12148,-0.10271 0.27892,-0.2376 0.47215,-0.40471 0.17316,-0.17504 0.3503,-0.36005 0.53139,-0.55512 0.18106,-0.19506 0.3582,-0.3801 0.53139,-0.55512 0.16709,-0.18898 0.30533,-0.3488 0.41471,-0.47945 l -6.60489,-15.19023 z"
         style="font-weight:bold;font-size:36.9517px;font-family:'Gentium Basic';-inkscape-font-specification:'Gentium Basic Bold';text-align:center;text-anchor:middle;fill:#003380;fill-opacity:1;stroke-width:22.1048;stroke-linecap:round"
         id="path3333-7-5-3"
         sodipodi:nodetypes="ccccscccc" />
      <path
         d="m 171.31629,92.492533 q 0.0374,0.257937 0.0575,0.648079 0.0201,0.390111 0.0192,0.789351 0.008,0.420203 -0.0109,0.777511 0.0109,0.369155 1e-5,0.573326 l -16.89716,7.3471 -0.96256,-0.37916 q -0.0283,-0.23699 -0.0693,-0.61799 -0.0109,-0.36915 -0.01,-0.76839 9e-4,-0.39923 -0.01,-0.7684 0.01,-0.378265 0.0236,-0.633488 l 16.89718,-7.347096 z"
         style="font-weight:bold;font-size:36.9517px;font-family:'Gentium Basic';-inkscape-font-specification:'Gentium Basic Bold';text-align:center;text-anchor:middle;fill:#00aa44;stroke-width:22.1048;stroke-linecap:round"
         id="path3333-7" />
      <path
         d="m 187.83788,130.48964 q 0.0374,0.25794 0.0575,0.64808 0.0201,0.39011 0.0192,0.78935 0.008,0.4202 -0.0109,0.77751 0.0109,0.36915 1e-5,0.57333 l -16.89714,7.34708 -0.96254,-0.37916 q -0.0283,-0.23699 -0.0693,-0.61799 -0.0109,-0.36915 -0.01,-0.76839 8.9e-4,-0.39923 -0.01,-0.7684 0.01,-0.37827 0.0236,-0.63349 l 16.89714,-7.34708 z"
         style="font-weight:bold;font-size:36.9517px;font-family:'Gentium Basic';-inkscape-font-specification:'Gentium Basic Bold';text-align:center;text-anchor:middle;fill:#00aa44;stroke-width:22.1048;stroke-linecap:round"
         id="path3333" />
    </g>
  </g>
</svg>
