<svg width="256" height="256" viewBox="0 0 256 256" fill="none" xmlns="http://www.w3.org/2000/svg">
<g clip-path="url(#clip0_3643_6111)">
<rect width="256" height="256" transform="matrix(-1 0 0 1 256 0)" fill="#441650"/>
<g clip-path="url(#clip1_3643_6111)">
<g clip-path="url(#clip2_3643_6111)">
<path fill-rule="evenodd" clip-rule="evenodd" d="M141.723 36.0772C178.542 38.1552 212.733 68.7214 209.131 108.453C207.885 122.203 201.599 135.017 191.729 144.371C181.858 153.725 167.748 159.549 152.555 157.426C142.661 156.043 133.642 151.197 127.045 143.692C120.449 136.187 116.436 125.194 118.89 113.835C120.371 106.979 124.02 101.055 129.682 96.6383C135.344 92.2213 144.199 89.6378 152.564 92.5753C158.818 94.7701 162.109 101.619 159.913 107.873C157.718 114.127 150.869 117.417 144.616 115.222C144.525 115.19 145.228 114.95 144.438 115.566C143.649 116.182 142.542 117.981 142.343 118.901C141.609 122.297 142.518 124.931 145.078 127.844C147.638 130.756 152.007 133.118 155.87 133.658C163.345 134.702 169.76 132.134 175.221 126.958C180.682 121.783 184.534 113.922 185.226 106.289C187.46 81.6405 164.815 61.412 140.366 60.0321C104.464 58.0058 75.928 90.6379 74.8266 125.896C74.6109 132.804 74.5959 138.288 76.9713 146.545L53.6361 152.163C51.515 142.356 50.548 134.253 50.8324 125.148C52.3234 77.4139 91 33.2144 141.723 36.0772Z" fill="white"/>
<path d="M53.6362 152.162L76.9713 146.545C102.9 208.272 209.786 245.633 327.021 272.98L306.65 305.474C239.272 288.435 171.217 259.866 122.549 228.094C84.7441 203.415 61.8071 180.324 53.6362 152.162Z" fill="white"/>
</g>
</g>
</g>
<defs>
<clipPath id="clip0_3643_6111">
<rect width="256" height="256" fill="white" transform="matrix(-1 0 0 1 256 0)"/>
</clipPath>
<clipPath id="clip1_3643_6111">
<rect width="256" height="256" fill="white" transform="matrix(-1 0 0 1 256 0)"/>
</clipPath>
<clipPath id="clip2_3643_6111">
<rect width="256" height="256" fill="white" transform="matrix(-1 0 0 1 256 0)"/>
</clipPath>
</defs>
</svg>
