<?xml version="1.0" encoding="UTF-8" standalone="no"?>
<!-- Created with Inkscape (http://www.inkscape.org/) -->

<svg
   version="1.1"
   id="svg2"
   width="197.62666"
   height="219.52"
   viewBox="0 0 197.62666 219.52"
   sodipodi:docname="TranslationCore_FullColor.svg"
   inkscape:version="1.2.2 (b0a8486541, 2022-12-01)"
   xmlns:inkscape="http://www.inkscape.org/namespaces/inkscape"
   xmlns:sodipodi="http://sodipodi.sourceforge.net/DTD/sodipodi-0.dtd"
   xmlns="http://www.w3.org/2000/svg"
   xmlns:svg="http://www.w3.org/2000/svg">
  <defs
     id="defs6" />
  <sodipodi:namedview
     id="namedview4"
     pagecolor="#ffffff"
     bordercolor="#000000"
     borderopacity="0.25"
     inkscape:showpageshadow="2"
     inkscape:pageopacity="0.0"
     inkscape:pagecheckerboard="0"
     inkscape:deskcolor="#d1d1d1"
     showgrid="false"
     inkscape:zoom="3.6944241"
     inkscape:cx="98.797538"
     inkscape:cy="110.03068"
     inkscape:window-width="1920"
     inkscape:window-height="1043"
     inkscape:window-x="0"
     inkscape:window-y="0"
     inkscape:window-maximized="1"
     inkscape:current-layer="g10">
    <inkscape:page
       x="0"
       y="0"
       id="page8"
       width="197.62666"
       height="219.52" />
  </sodipodi:namedview>
  <g
     id="g10"
     inkscape:groupmode="layer"
     inkscape:label="Page 1"
     transform="matrix(1.3333333,0,0,-1.3333333,0,219.52)">
    <g
       id="g12"
       transform="scale(0.1)">
      <path
         d="m 741.086,414.551 c 225.687,0 408.644,182.961 408.644,408.644 0,225.695 -182.957,408.675 -408.644,408.675 -225.691,0 -408.648,-182.98 -408.648,-408.675 0,-225.683 182.957,-408.644 408.648,-408.644"
         style="fill:#ffffff;fill-opacity:1;fill-rule:nonzero;stroke:none"
         id="path14" />
      <path
         d="m 741.285,1279.91 c 148.567,0 280.745,-71.33 364.195,-181.52 l 206.39,119.14 c 0.66,0.39 1.35,0.63 2.01,0.99 l -523.974,302.55 c -15,8.64 -31.824,12.98 -48.621,12.98 -16.82,0 -33.617,-4.34 -48.617,-12.98 L 167.891,1218.08 c 4.445,-1.93 8.839,-4.03 13.121,-6.49 l 196.078,-113.2 c 83.453,110.19 215.633,181.52 364.195,181.52"
         style="fill:#78d1ca;fill-opacity:1;fill-rule:nonzero;stroke:none"
         id="path16" />
      <path
         d="m 284.582,823.211 c 0,63.094 12.871,123.203 36.106,177.929 l -195.883,113.09 c -1.024,0.58 -4.09,2.35 -8.121,0 -4.063,-2.35 -4.063,-5.88 -4.063,-7.04 V 516.359 c 0,-34.609 18.617,-66.879 48.617,-84.168 l 511.77,-295.5 c 1.078,-0.613 4.058,-2.211 8.012,0.079 4.058,2.351 4.058,5.859 4.058,7.019 V 370.09 C 459.691,397.91 284.582,590.422 284.582,823.211"
         style="fill:#55b2e7;fill-opacity:1;fill-rule:nonzero;stroke:none"
         id="path18" />
      <path
         d="M 1368.61,1120.43 1161.9,1001.12 c 23.23,-54.729 36.08,-114.839 36.08,-177.905 0,-232.703 -174.98,-425.195 -400.253,-453.094 l -0.219,-238.23 c 0.191,-0.879 0.965,-1.332 1.324,-1.332 l 522.568,301.66 c 29.95,17.32 48.54,49.562 48.54,84.14 V 1119.1 c -0.22,0.88 -0.97,1.33 -1.33,1.33"
         style="fill:#e39523;fill-opacity:1;fill-rule:nonzero;stroke:none"
         id="path20" />
      <path
         d="m 1377.35,1311.59 -531.44,306.82 c -64.668,37.35 -144.972,37.35 -209.64,0 L 104.805,1311.59 C 40.1641,1274.24 0,1204.68 0,1130.04 V 1107.2 516.371 464.93 C 0,422 23.0938,382 60.25,360.539 L 609.836,43.25 636.27,28 C 668.59,9.32031 704.836,-0.0117188 741.078,-0.0117188 777.32,-0.0117188 813.563,9.32031 845.91,28 l 9.395,5.4102 c 0.027,0.0312 0.054,0.0312 0.082,0.0586 L 1425.33,362.531 h 0.03 c 35.05,20.25 56.82,57.949 56.82,98.418 v 55.422 602.729 10.94 c 0,74.64 -40.19,144.2 -104.83,181.55 m -684.866,209.47 c 14.973,8.65 31.797,12.99 48.594,12.99 16.82,0 33.617,-4.34 48.617,-12.99 l 523.975,-302.51 c -0.66,-0.39 -1.35,-0.64 -2.01,-1.02 l -206.39,-119.15 c -83.45,110.2 -215.629,181.52 -364.192,181.52 -148.566,0 -280.746,-71.32 -364.199,-181.52 l -196.078,113.21 c -4.281,2.46 -8.672,4.58 -13.121,6.49 z M 684.859,143.801 c 0,-1.16 0,-4.699 -4.058,-7.02 -3.922,-2.32 -6.934,-0.691 -8.012,-0.082 l -511.766,295.5 C 131.051,449.488 112.43,481.75 112.43,516.371 V 1107.2 c 0,1.16 0,4.69 4.062,7.01 4.004,2.38 7.098,0.61 8.094,0.03 l 195.883,-113.1 c -23.231,-54.718 -36.078,-114.855 -36.078,-177.921 0,-232.789 175.086,-425.328 400.468,-453.117 z m 0,339.808 c -163.175,26.903 -288.062,168.918 -288.062,339.61 0,42.597 7.844,83.398 22.07,121.105 13.426,35.606 32.539,68.426 56.297,97.316 63.207,76.8 158.926,125.83 265.914,125.83 106.988,0 202.703,-49.03 265.912,-125.83 23.78,-28.89 42.9,-61.738 56.32,-97.343 14.2,-37.68 22.05,-78.481 22.05,-121.078 0,-170.582 -124.727,-312.52 -287.739,-339.559 -18.394,-3.07 -37.262,-4.719 -56.543,-4.719 -19.144,0 -37.902,1.629 -56.219,4.668 m 684.891,32.762 c 0,-34.59 -18.62,-66.832 -48.54,-84.152 L 798.617,130.57 c -0.359,0 -1.105,0.442 -1.324,1.321 l 0.219,238.23 c 225.278,27.91 400.278,220.391 400.278,453.098 0,63.066 -12.87,123.176 -36.08,177.901 l 206.71,119.31 c 0.34,0 1.11,-0.45 1.33,-1.33 V 516.371"
         style="fill:#231f20;fill-opacity:1;fill-rule:nonzero;stroke:none"
         id="path22" />
      <path
         d="m 849.18,823.207 c 0,-59.695 -48.395,-108.094 -108.09,-108.094 -59.699,0 -108.098,48.399 -108.098,108.094 0,59.695 48.399,108.094 108.098,108.094 59.695,0 108.09,-48.399 108.09,-108.094"
         style="fill:#231f20;fill-opacity:1;fill-rule:nonzero;stroke:none"
         id="path24" />
    </g>
  </g>
</svg>
