<svg width="1120" height="1120" viewBox="0 0 1120 1120" fill="none" xmlns="http://www.w3.org/2000/svg">
<g clip-path="url(#clip0_4440_13156)">
<g clip-path="url(#clip1_4440_13156)">
<ellipse cx="1352.86" cy="777.104" rx="1352.86" ry="777.104" transform="matrix(0.953079 -0.302721 0.302796 0.953055 -709.688 450.08)" fill="#21A0A0"/>
<ellipse cx="284.29" cy="167.897" rx="284.29" ry="167.897" transform="matrix(0.9369 -0.349598 0.349669 0.936873 757 979.774)" fill="white"/>
<path d="M1012 580.091C1227.06 508.018 1437.01 493.816 1601.86 527.401C1767.78 561.203 1880.59 641.248 1917.43 751.14C1954.26 861.032 1912.49 992.882 1800.46 1119.83C1689.15 1245.97 1513.05 1361.15 1298 1433.22C1082.94 1505.3 872.994 1519.5 708.138 1485.92C542.22 1452.11 429.414 1372.07 392.574 1262.18C355.735 1152.28 397.508 1020.43 509.537 893.482C620.849 767.342 796.946 652.165 1012 580.091Z" stroke="white" stroke-width="72"/>
<path d="M682.573 311.451C1012.51 151.625 1347.53 85.9224 1621.52 107.279C1896.52 128.713 2102.66 236.65 2189.54 415.956C2276.42 595.262 2233.38 823.904 2079.76 1052.97C1926.7 1281.2 1667.49 1503.35 1337.55 1663.18C1007.62 1823 672.597 1888.71 398.603 1867.35C123.602 1845.92 -82.531 1737.98 -169.414 1558.67C-256.296 1379.37 -213.252 1150.73 -59.6313 921.659C93.4272 693.431 352.639 471.277 682.573 311.451Z" stroke="white" stroke-width="72"/>
</g>
</g>
<defs>
<clipPath id="clip0_4440_13156">
<rect x="48" y="48" width="1024" height="1024" rx="48" fill="white"/>
</clipPath>
<clipPath id="clip1_4440_13156">
<rect width="2720" height="2300" fill="white" transform="translate(-545 -369)"/>
</clipPath>
</defs>
</svg>
