<svg width="1120" height="1120" viewBox="0 0 1120 1120" fill="none" xmlns="http://www.w3.org/2000/svg">
<g clip-path="url(#clip0_4582_54438)">
<rect width="1024" height="1024" rx="48" transform="matrix(-1 0 0 1 1072 48)" fill="#441650"/>
<g clip-path="url(#clip1_4582_54438)">
<g clip-path="url(#clip2_4582_54438)">
<path fill-rule="evenodd" clip-rule="evenodd" d="M614.893 192.308C762.167 200.62 898.931 322.884 884.526 481.813C879.54 536.811 854.394 588.067 814.914 625.483C775.433 662.899 718.993 686.193 658.218 677.702C618.642 672.172 582.566 652.788 556.181 622.768C529.796 592.748 513.742 548.775 523.559 503.338C529.484 475.914 544.08 452.22 566.727 434.552C589.374 416.884 624.794 406.55 658.257 418.3C683.273 427.079 696.434 454.476 687.653 479.491C678.873 504.506 651.477 517.667 626.462 508.886C626.098 508.759 628.912 507.799 625.754 510.263C622.595 512.728 618.167 519.924 617.372 523.603C614.437 537.188 618.072 547.723 628.311 559.373C638.551 571.024 656.028 580.471 671.479 582.63C701.378 586.807 727.039 576.533 748.883 555.832C770.726 535.131 786.135 503.688 788.903 473.155C797.84 374.561 707.26 293.647 609.462 288.127C465.854 280.022 351.711 410.551 347.306 551.582C346.443 579.216 346.383 601.15 355.885 634.18L262.544 656.649C254.059 617.424 250.191 585.013 251.329 548.591C257.293 357.654 412 180.856 614.893 192.308Z" fill="white"/>
<path d="M262.544 656.649L355.885 634.18C459.601 881.088 887.143 1030.53 1356.08 1139.92L1274.6 1269.9C1005.09 1201.74 732.866 1087.46 538.195 960.377C386.976 861.659 295.228 769.296 262.544 656.649Z" fill="white"/>
</g>
</g>
</g>
<defs>
<clipPath id="clip0_4582_54438">
<rect width="1024" height="1024" rx="48" transform="matrix(-1 0 0 1 1072 48)" fill="white"/>
</clipPath>
<clipPath id="clip1_4582_54438">
<rect width="1024" height="1024" fill="white" transform="matrix(-1 0 0 1 1072 48)"/>
</clipPath>
<clipPath id="clip2_4582_54438">
<rect width="1024" height="1024" fill="white" transform="matrix(-1 0 0 1 1072 48)"/>
</clipPath>
</defs>
</svg>
