<svg width="1024" height="1024" viewBox="0 0 1024 1024" fill="none" xmlns="http://www.w3.org/2000/svg">
<g clip-path="url(#clip0_4582_54454)">
<rect width="824" height="824" rx="180" transform="matrix(-1 0 0 1 924 100)" fill="#441650"/>
<g clip-path="url(#clip1_4582_54454)">
<g clip-path="url(#clip2_4582_54454)">
<path fill-rule="evenodd" clip-rule="evenodd" d="M556.172 216.123C674.681 222.811 784.734 321.196 773.142 449.084C769.13 493.34 748.896 534.585 717.126 564.693C685.356 594.802 639.94 613.546 591.035 606.713C559.188 602.264 530.159 586.666 508.927 562.509C487.695 538.352 474.777 502.967 482.677 466.405C487.445 444.337 499.19 425.271 517.413 411.054C535.637 396.836 564.139 388.521 591.067 397.976C611.196 405.041 621.787 427.086 614.721 447.215C607.656 467.345 585.61 477.936 565.481 470.869C565.188 470.767 567.453 469.995 564.911 471.978C562.37 473.96 558.806 479.752 558.166 482.712C555.805 493.643 558.73 502.121 566.969 511.496C575.209 520.871 589.272 528.473 601.706 530.21C625.765 533.572 646.415 525.304 663.992 508.646C681.569 491.988 693.968 466.686 696.195 442.117C703.387 362.779 630.499 297.669 551.802 293.227C436.242 286.705 344.393 391.74 340.848 505.226C340.153 527.463 340.105 545.113 347.751 571.691L272.641 589.772C265.814 558.208 262.701 532.128 263.616 502.82C268.416 349.175 392.906 206.908 556.172 216.123Z" fill="white"/>
<path d="M272.641 589.772L347.751 571.691C431.21 770.376 775.248 890.631 1152.6 978.654L1087.03 1083.24C870.157 1028.4 651.103 936.442 494.454 834.179C372.77 754.741 298.941 680.418 272.641 589.772Z" fill="white"/>
</g>
</g>
</g>
<defs>
<clipPath id="clip0_4582_54454">
<rect width="824" height="824" rx="180" transform="matrix(-1 0 0 1 924 100)" fill="white"/>
</clipPath>
<clipPath id="clip1_4582_54454">
<rect width="824" height="824" fill="white" transform="matrix(-1 0 0 1 924 100)"/>
</clipPath>
<clipPath id="clip2_4582_54454">
<rect width="824" height="824" fill="white" transform="matrix(-1 0 0 1 924 100)"/>
</clipPath>
</defs>
</svg>
